<?xml version="1.0" encoding="UTF-8"?>
<svg xmlns="http://www.w3.org/2000/svg" xmlns:xlink="http://www.w3.org/1999/xlink" width="50pt" height="50pt" viewBox="0 0 50 50" version="1.1">
<g id="surface1">
<path style=" stroke:none;fill-rule:nonzero;fill:rgb(76.470588%,74.117647%,74.117647%);fill-opacity:1;" d="M 45.964844 20.261719 L 45.894531 20.261719 C 46.066406 20.015625 46.253906 19.78125 46.472656 19.574219 C 48.746094 17.421875 50 14.515625 50 11.390625 C 50 8.175781 48.625 5.105469 46.230469 2.964844 C 43.835938 0.828125 40.613281 -0.191406 37.398438 0.171875 C 32.339844 0.742188 28.1875 4.816406 27.519531 9.855469 C 27.335938 11.238281 27.40625 12.605469 27.703125 13.90625 C 26.769531 13.464844 25.808594 13.101562 24.816406 12.832031 L 24.011719 9.777344 L 16.316406 9.777344 L 15.507812 12.832031 C 14.054688 13.226562 12.667969 13.800781 11.355469 14.550781 L 8.625 12.960938 L 3.183594 18.402344 L 4.777344 21.136719 C 4.027344 22.441406 3.449219 23.835938 3.058594 25.285156 L 0 26.089844 L 0 33.78125 L 3.058594 34.589844 C 3.449219 36.042969 4.027344 37.433594 4.777344 38.738281 L 3.183594 41.472656 L 8.625 46.914062 L 11.355469 45.324219 C 12.667969 46.070312 14.058594 46.652344 15.507812 47.042969 L 16.316406 50.097656 L 24.007812 50.097656 L 24.816406 47.042969 C 26.261719 46.648438 27.65625 46.070312 28.964844 45.324219 L 31.699219 46.914062 L 37.136719 41.472656 L 35.546875 38.738281 C 36.296875 37.433594 36.871094 36.042969 37.265625 34.589844 L 40.324219 33.78125 L 40.324219 29.871094 C 42.789062 29.519531 44.738281 27.566406 45.097656 25.097656 L 45.964844 25.097656 C 47.300781 25.097656 48.386719 24.011719 48.386719 22.679688 C 48.386719 21.34375 47.300781 20.261719 45.964844 20.261719 Z M 29.117188 10.066406 C 29.691406 5.753906 33.25 2.265625 37.578125 1.773438 C 40.382812 1.457031 43.074219 2.308594 45.152344 4.167969 C 47.210938 6.003906 48.386719 8.636719 48.386719 11.390625 C 48.386719 14.066406 47.316406 16.558594 45.363281 18.40625 C 44.804688 18.933594 44.359375 19.570312 44.050781 20.261719 L 41.183594 20.261719 L 41.5625 14.617188 L 43.546875 14.617188 C 45.328125 14.617188 46.773438 13.167969 46.773438 11.390625 C 46.773438 9.609375 45.328125 8.164062 43.546875 8.164062 L 43.390625 8.164062 C 41.699219 8.164062 40.285156 9.484375 40.171875 11.175781 L 40.050781 13 L 37.367188 13 L 37.246094 11.175781 C 37.136719 9.484375 35.71875 8.164062 34.027344 8.164062 L 33.871094 8.164062 C 32.09375 8.164062 30.644531 9.609375 30.644531 11.390625 C 30.644531 13.167969 32.09375 14.617188 33.871094 14.617188 L 35.859375 14.617188 L 36.234375 20.261719 L 33.367188 20.261719 C 33.054688 19.566406 32.605469 18.929688 32.042969 18.386719 C 29.769531 16.230469 28.707031 13.195312 29.117188 10.066406 Z M 37.851562 20.261719 L 37.472656 14.617188 L 39.945312 14.617188 L 39.566406 20.261719 Z M 41.667969 13 L 41.785156 11.28125 C 41.839844 10.4375 42.546875 9.777344 43.390625 9.777344 L 43.546875 9.777344 C 44.4375 9.777344 45.164062 10.496094 45.164062 11.390625 C 45.164062 12.277344 44.4375 13 43.546875 13 Z M 35.753906 13 L 33.871094 13 C 32.980469 13 32.257812 12.277344 32.257812 11.390625 C 32.257812 10.496094 32.980469 9.777344 33.871094 9.777344 L 34.027344 9.777344 C 34.871094 9.777344 35.578125 10.4375 35.636719 11.28125 Z M 35.929688 33.273438 L 35.820312 33.742188 C 35.429688 35.355469 34.792969 36.894531 33.921875 38.316406 L 33.671875 38.726562 L 35.117188 41.210938 L 31.433594 44.894531 L 28.953125 43.449219 L 28.542969 43.699219 C 27.121094 44.566406 25.578125 45.207031 23.964844 45.597656 L 23.5 45.710938 L 22.765625 48.488281 L 17.554688 48.488281 L 16.824219 45.710938 L 16.355469 45.597656 C 14.742188 45.207031 13.203125 44.566406 11.78125 43.699219 L 11.371094 43.449219 L 8.886719 44.894531 L 5.207031 41.210938 L 6.652344 38.722656 L 6.398438 38.316406 C 5.53125 36.894531 4.894531 35.355469 4.503906 33.742188 L 4.390625 33.273438 L 1.613281 32.542969 L 1.613281 27.332031 L 4.390625 26.597656 L 4.503906 26.132812 C 4.894531 24.519531 5.53125 22.980469 6.398438 21.558594 L 6.652344 21.148438 L 5.207031 18.660156 L 8.886719 14.980469 L 11.371094 16.425781 L 11.78125 16.175781 C 13.203125 15.304688 14.742188 14.667969 16.355469 14.277344 L 16.824219 14.164062 L 17.558594 11.390625 L 22.765625 11.390625 L 23.5 14.167969 L 23.96875 14.28125 C 25.558594 14.664062 27.070312 15.289062 28.472656 16.140625 C 29.0625 17.398438 29.878906 18.5625 30.925781 19.558594 C 31.152344 19.773438 31.347656 20.011719 31.519531 20.261719 L 31.453125 20.261719 C 30.988281 20.261719 30.558594 20.398438 30.191406 20.625 C 27.601562 17.828125 23.996094 16.226562 20.164062 16.226562 C 12.601562 16.226562 6.453125 22.375 6.453125 29.9375 C 6.453125 37.496094 12.601562 43.644531 20.164062 43.644531 C 27.722656 43.644531 33.871094 37.496094 33.871094 29.9375 L 33.871094 28.234375 C 34.894531 29.285156 36.324219 29.9375 37.902344 29.9375 L 38.710938 29.9375 L 38.710938 32.542969 Z M 31.453125 25.097656 L 32.257812 25.097656 L 32.257812 29.9375 C 32.257812 36.609375 26.832031 42.035156 20.164062 42.035156 C 13.488281 42.035156 8.0625 36.609375 8.0625 29.9375 C 8.0625 23.269531 13.488281 17.839844 20.164062 17.839844 C 23.625 17.839844 26.878906 19.320312 29.171875 21.894531 C 29.089844 22.140625 29.035156 22.402344 29.035156 22.679688 C 29.035156 24.011719 30.117188 25.097656 31.453125 25.097656 Z M 39.515625 28.324219 L 37.902344 28.324219 C 35.957031 28.324219 34.324219 26.9375 33.953125 25.097656 L 43.464844 25.097656 C 43.09375 26.9375 41.460938 28.324219 39.515625 28.324219 Z M 45.964844 23.488281 L 31.453125 23.488281 C 31.003906 23.488281 30.644531 23.125 30.644531 22.679688 C 30.644531 22.238281 31.003906 21.871094 31.453125 21.871094 L 45.964844 21.871094 C 46.414062 21.871094 46.773438 22.238281 46.773438 22.679688 C 46.773438 23.125 46.414062 23.488281 45.964844 23.488281 Z M 45.964844 23.488281 "/>
<path style=" stroke:none;fill-rule:nonzero;fill:rgb(76.470588%,74.117647%,74.117647%);fill-opacity:1;" d="M 20.164062 21.066406 C 15.269531 21.066406 11.289062 25.046875 11.289062 29.9375 C 11.289062 34.828125 15.269531 38.808594 20.164062 38.808594 C 25.050781 38.808594 29.035156 34.828125 29.035156 29.9375 C 29.035156 25.046875 25.050781 21.066406 20.164062 21.066406 Z M 20.164062 37.195312 C 16.160156 37.195312 12.902344 33.9375 12.902344 29.9375 C 12.902344 25.933594 16.160156 22.679688 20.164062 22.679688 C 24.164062 22.679688 27.417969 25.933594 27.417969 29.9375 C 27.417969 33.9375 24.164062 37.195312 20.164062 37.195312 Z M 19.355469 13 L 20.964844 13 L 20.964844 14.617188 L 19.355469 14.617188 Z M 7.617188 18.53125 L 8.757812 17.394531 L 9.898438 18.53125 L 8.757812 19.675781 Z M 3.226562 29.128906 L 4.835938 29.128906 L 4.835938 30.742188 L 3.226562 30.742188 Z M 7.617188 41.34375 L 8.761719 40.203125 L 9.898438 41.34375 L 8.761719 42.484375 Z M 19.355469 45.261719 L 20.964844 45.261719 L 20.964844 46.871094 L 19.355469 46.871094 Z M 30.429688 41.339844 L 31.570312 40.203125 L 32.707031 41.34375 L 31.570312 42.484375 Z M 30.429688 41.339844 "/>
<path style=" stroke:none;fill-rule:nonzero;fill:rgb(76.470588%,74.117647%,74.117647%);fill-opacity:1;" d="M 14.515625 29.9375 L 16.128906 29.9375 C 16.128906 27.714844 17.941406 25.90625 20.164062 25.90625 L 20.164062 24.289062 C 17.050781 24.289062 14.515625 26.824219 14.515625 29.9375 Z M 14.835938 31.820312 C 15.082031 32.511719 15.457031 33.148438 15.953125 33.699219 L 17.15625 32.625 C 16.800781 32.230469 16.535156 31.777344 16.355469 31.28125 Z M 35.128906 6.023438 L 34.230469 4.683594 C 33.664062 5.0625 33.152344 5.507812 32.699219 6.011719 L 33.902344 7.085938 C 34.261719 6.683594 34.675781 6.324219 35.128906 6.023438 Z M 40.144531 5.097656 L 40.5 3.527344 C 39.023438 3.191406 37.449219 3.277344 36.023438 3.78125 L 36.558594 5.300781 C 37.699219 4.902344 38.960938 4.828125 40.144531 5.097656 Z M 40.144531 5.097656 "/>
</g>
</svg>
