<svg id="SvgjsSvg1032" width="288" height="288" xmlns="http://www.w3.org/2000/svg" version="1.1" xmlns:xlink="http://www.w3.org/1999/xlink" xmlns:svgjs="http://svgjs.com/svgjs"><defs id="SvgjsDefs1033"></defs><g id="SvgjsG1034"><svg xmlns="http://www.w3.org/2000/svg" width="288" height="288" viewBox="0 0 60 60"><path fill="#c3bdbd" d="M 55.160156 24.3125 L 55.074219 24.3125 C 55.277344 24.019531 55.503906 23.738281 55.765625 23.488281 C 58.496094 20.90625 60 17.417969 60 13.667969 C 60 9.8125 58.351562 6.128906 55.476562 3.558594 C 52.601562 0.992188 48.734375 -0.230469 44.878906 0.207031 C 38.808594 0.890625 33.824219 5.777344 33.023438 11.824219 C 32.804688 13.484375 32.886719 15.125 33.242188 16.6875 C 32.125 16.160156 30.972656 15.722656 29.78125 15.398438 L 28.8125 11.730469 L 19.578125 11.730469 L 18.609375 15.398438 C 16.867188 15.871094 15.199219 16.5625 13.628906 17.460938 L 10.351562 15.554688 L 3.820312 22.082031 L 5.730469 25.363281 C 4.832031 26.929688 4.140625 28.601562 3.667969 30.339844 L 0 31.308594 L 0 40.539062 L 3.667969 41.507812 C 4.140625 43.25 4.832031 44.917969 5.730469 46.488281 L 3.820312 49.769531 L 10.351562 56.296875 L 13.628906 54.386719 C 15.199219 55.285156 16.871094 55.980469 18.609375 56.453125 L 19.578125 60.117188 L 28.808594 60.117188 L 29.777344 56.449219 C 31.515625 55.976562 33.1875 55.285156 34.757812 54.386719 L 38.039062 56.296875 L 44.566406 49.765625 L 42.65625 46.488281 C 43.554688 44.917969 44.246094 43.25 44.71875 41.507812 L 48.386719 40.539062 L 48.386719 35.847656 C 51.347656 35.421875 53.6875 33.078125 54.117188 30.117188 L 55.160156 30.117188 C 56.761719 30.117188 58.066406 28.816406 58.066406 27.214844 C 58.066406 25.613281 56.761719 24.3125 55.160156 24.3125 Z M 34.941406 12.078125 C 35.628906 6.902344 39.898438 2.71875 45.09375 2.128906 C 48.460938 1.75 51.6875 2.769531 54.183594 5.003906 C 56.652344 7.207031 58.066406 10.363281 58.066406 13.667969 C 58.066406 16.878906 56.777344 19.871094 54.4375 22.085938 C 53.765625 22.722656 53.230469 23.484375 52.859375 24.3125 L 49.421875 24.3125 L 49.875 17.539062 L 52.257812 17.539062 C 54.394531 17.539062 56.128906 15.800781 56.128906 13.667969 C 56.128906 11.53125 54.394531 9.796875 52.257812 9.796875 L 52.070312 9.796875 C 50.039062 9.796875 48.34375 11.382812 48.207031 13.410156 L 48.0625 15.601562 L 44.839844 15.601562 L 44.695312 13.410156 C 44.5625 11.382812 42.863281 9.796875 40.832031 9.796875 L 40.644531 9.796875 C 38.511719 9.796875 36.773438 11.53125 36.773438 13.667969 C 36.773438 15.800781 38.511719 17.539062 40.644531 17.539062 L 43.03125 17.539062 L 43.480469 24.3125 L 40.039062 24.3125 C 39.664062 23.480469 39.125 22.714844 38.449219 22.066406 C 35.722656 19.476562 34.449219 15.835938 34.941406 12.078125 Z M 45.421875 24.3125 L 44.96875 17.539062 L 47.933594 17.539062 L 47.480469 24.3125 Z M 50.003906 15.601562 L 50.140625 13.539062 C 50.207031 12.523438 51.054688 11.730469 52.070312 11.730469 L 52.257812 11.730469 C 53.324219 11.730469 54.195312 12.597656 54.195312 13.667969 C 54.195312 14.734375 53.324219 15.601562 52.257812 15.601562 Z M 42.902344 15.601562 L 40.644531 15.601562 C 39.578125 15.601562 38.710938 14.734375 38.710938 13.667969 C 38.710938 12.597656 39.578125 11.730469 40.644531 11.730469 L 40.832031 11.730469 C 41.847656 11.730469 42.695312 12.523438 42.761719 13.539062 Z M 43.117188 39.929688 L 42.984375 40.492188 C 42.515625 42.425781 41.75 44.273438 40.707031 45.980469 L 40.40625 46.472656 L 42.140625 49.453125 L 37.722656 53.875 L 34.742188 52.140625 L 34.25 52.441406 C 32.542969 53.480469 30.695312 54.246094 28.757812 54.714844 L 28.199219 54.851562 L 27.320312 58.183594 L 21.066406 58.183594 L 20.1875 54.851562 L 19.625 54.714844 C 17.691406 54.246094 15.84375 53.480469 14.136719 52.4375 L 13.644531 52.136719 L 10.664062 53.871094 L 6.246094 49.453125 L 7.980469 46.46875 L 7.679688 45.980469 C 6.636719 44.273438 5.875 42.425781 5.402344 40.492188 L 5.269531 39.929688 L 1.933594 39.050781 L 1.933594 32.796875 L 5.269531 31.917969 L 5.402344 31.359375 C 5.871094 29.421875 6.636719 27.574219 7.679688 25.871094 L 7.980469 25.378906 L 6.246094 22.394531 L 10.664062 17.976562 L 13.644531 19.710938 L 14.136719 19.410156 C 15.84375 18.367188 17.691406 17.601562 19.628906 17.132812 L 20.1875 16.996094 L 21.070312 13.667969 L 27.320312 13.667969 L 28.199219 17 L 28.761719 17.136719 C 30.667969 17.597656 32.484375 18.347656 34.167969 19.367188 C 34.875 20.878906 35.855469 22.273438 37.113281 23.46875 C 37.382812 23.726562 37.617188 24.011719 37.824219 24.3125 L 37.742188 24.3125 C 37.1875 24.3125 36.671875 24.476562 36.230469 24.75 C 33.121094 21.394531 28.796875 19.472656 24.195312 19.472656 C 15.121094 19.472656 7.742188 26.851562 7.742188 35.925781 C 7.742188 44.996094 15.121094 52.375 24.195312 52.375 C 33.265625 52.375 40.644531 44.996094 40.644531 35.925781 L 40.644531 33.882812 C 41.875 35.140625 43.589844 35.925781 45.484375 35.925781 L 46.453125 35.925781 L 46.453125 39.050781 Z M 37.742188 30.117188 L 38.710938 30.117188 L 38.710938 35.925781 C 38.710938 43.929688 32.199219 50.441406 24.195312 50.441406 C 16.1875 50.441406 9.675781 43.929688 9.675781 35.925781 C 9.675781 27.921875 16.1875 21.410156 24.195312 21.410156 C 28.351562 21.410156 32.253906 23.183594 35.007812 26.273438 C 34.90625 26.570312 34.839844 26.882812 34.839844 27.214844 C 34.839844 28.816406 36.140625 30.117188 37.742188 30.117188 Z M 47.417969 33.988281 L 45.484375 33.988281 C 43.148438 33.988281 41.191406 32.324219 40.742188 30.117188 L 52.160156 30.117188 C 51.710938 32.324219 49.753906 33.988281 47.417969 33.988281 Z M 55.160156 28.183594 L 37.742188 28.183594 C 37.207031 28.183594 36.773438 27.75 36.773438 27.214844 C 36.773438 26.683594 37.207031 26.246094 37.742188 26.246094 L 55.160156 26.246094 C 55.695312 26.246094 56.128906 26.683594 56.128906 27.214844 C 56.128906 27.75 55.695312 28.183594 55.160156 28.183594 Z M 55.160156 28.183594 " class="colorf0eded svgShape"></path><path fill="#c3bdbd" d="M 24.195312 25.28125 C 18.324219 25.28125 13.546875 30.054688 13.546875 35.925781 C 13.546875 41.792969 18.324219 46.570312 24.195312 46.570312 C 30.0625 46.570312 34.839844 41.792969 34.839844 35.925781 C 34.839844 30.054688 30.0625 25.28125 24.195312 25.28125 Z M 24.195312 44.632812 C 19.390625 44.632812 15.484375 40.726562 15.484375 35.925781 C 15.484375 31.121094 19.390625 27.214844 24.195312 27.214844 C 28.996094 27.214844 32.902344 31.121094 32.902344 35.925781 C 32.902344 40.726562 28.996094 44.632812 24.195312 44.632812 Z M 23.226562 15.601562 L 25.160156 15.601562 L 25.160156 17.539062 L 23.226562 17.539062 Z M 9.140625 22.238281 L 10.507812 20.871094 L 11.878906 22.238281 L 10.507812 23.609375 Z M 3.871094 34.957031 L 5.804688 34.957031 L 5.804688 36.890625 L 3.871094 36.890625 Z M 9.140625 49.613281 L 10.511719 48.242188 L 11.878906 49.613281 L 10.511719 50.980469 Z M 23.226562 54.3125 L 25.160156 54.3125 L 25.160156 56.246094 L 23.226562 56.246094 Z M 36.515625 49.609375 L 37.882812 48.242188 L 39.25 49.613281 L 37.882812 50.980469 Z M 36.515625 49.609375 " class="colorf0eded svgShape"></path><path fill="#c3bdbd" d="M 17.417969 35.925781 L 19.355469 35.925781 C 19.355469 33.257812 21.527344 31.085938 24.195312 31.085938 L 24.195312 29.148438 C 20.460938 29.148438 17.417969 32.1875 17.417969 35.925781 Z M 17.804688 38.183594 C 18.097656 39.015625 18.550781 39.777344 19.144531 40.441406 L 20.585938 39.148438 C 20.160156 38.675781 19.839844 38.132812 19.628906 37.539062 Z M 42.152344 7.226562 L 41.074219 5.621094 C 40.398438 6.074219 39.78125 6.609375 39.238281 7.214844 L 40.683594 8.503906 C 41.113281 8.019531 41.609375 7.589844 42.152344 7.226562 Z M 48.171875 6.117188 L 48.601562 4.230469 C 46.828125 3.828125 44.9375 3.933594 43.226562 4.539062 L 43.871094 6.363281 C 45.238281 5.882812 46.753906 5.792969 48.171875 6.117188 Z M 48.171875 6.117188 " class="colorf0eded svgShape"></path></svg></g></svg>