<svg id="SvgjsSvg1025" width="288" height="288" xmlns="http://www.w3.org/2000/svg" version="1.1" xmlns:xlink="http://www.w3.org/1999/xlink" xmlns:svgjs="http://svgjs.com/svgjs"><defs id="SvgjsDefs1026"></defs><g id="SvgjsG1027"><svg xmlns="http://www.w3.org/2000/svg" width="288" height="288" viewBox="0 0 496 495"><path d="m456 200.476562h-.726562c1.679687-2.421874 3.558593-4.726562 5.734374-6.792968 22.558594-21.359375 34.992188-50.199219 34.992188-81.207032 0-31.855468-13.632812-62.3125-37.40625-83.542968-23.753906-21.226563-55.714844-31.328125-87.601562-27.710938-50.160157 5.652344-91.367188 46.046875-97.984376 96.03125-1.816406 13.71875-1.144531 27.277344 1.785157 40.191406-9.226563-4.351562-18.761719-7.976562-28.617188-10.65625l-8.007812-30.3125h-76.328125l-8.007813 30.320313c-14.382812 3.902344-28.183593 9.632813-41.152343 17.0625l-27.121094-15.78125-53.964844 53.964844 15.789062 27.121093c-7.4375 12.960938-13.160156 26.769532-17.0625 41.152344l-30.320312 8v76.320313l30.320312 8.007812c3.902344 14.382813 9.625 28.183594 17.0625 41.152344l-15.789062 27.121094 53.964844 53.96875 27.121094-15.785157c12.96875 7.4375 26.777343 13.160157 41.152343 17.0625l8 30.3125h76.328125l8.007813-30.320312c14.375-3.902344 28.175781-9.632812 41.152343-17.0625l27.121094 15.78125 53.964844-53.964844-15.789062-27.121094c7.4375-12.960937 13.160156-26.769531 17.0625-41.152343l30.320312-8v-38.800781c24.472656-3.527344 43.832031-22.886719 47.359375-47.359376h8.640625c13.230469 0 24-10.769531 24-24 0-13.230468-10.769531-24-24-24zm-167.136719-101.128906c5.671875-42.796875 40.960938-77.382812 83.921875-82.238281 27.816406-3.128906 54.496094 5.296875 75.144532 23.742187 20.382812 18.21875 32.070312 44.3125 32.070312 71.625 0 26.566407-10.648438 51.289063-29.992188 69.601563-5.558593 5.269531-9.96875 11.566406-13.046874 18.398437h-28.410157l3.738281-56h19.710938c17.648438 0 32-14.351562 32-32 0-17.648437-14.351562-32-32-32h-1.542969c-16.792969 0-30.824219 13.121094-31.929687 29.871094l-1.207032 18.128906h-26.640624l-1.199219-18.128906c-1.113281-16.75-15.144531-29.871094-31.9375-29.871094h-1.542969c-17.648438 0-32 14.351563-32 32 0 17.648438 14.351562 32 32 32h19.710938l3.738281 56h-28.449219c-3.105469-6.863281-7.550781-13.214843-13.167969-18.566406-22.519531-21.410156-33.0625-51.496094-28.96875-82.5625zm86.625 101.128906-3.734375-56h24.492188l-3.734375 56zm37.863281-72 1.144532-17.0625c.550781-8.378906 7.558594-14.9375 15.960937-14.9375h1.542969c8.824219 0 16 7.175782 16 16 0 8.824219-7.175781 16-16 16zm-58.703124 0h-18.648438c-8.824219 0-16-7.175781-16-16 0-8.824218 7.175781-16 16-16h1.542969c8.402343 0 15.410156 6.558594 15.960937 14.9375zm1.800781 201.121094-1.121094 4.632813c-3.871094 16-10.199219 31.261719-18.816406 45.367187l-2.488281 4.070313 14.34375 24.648437-36.527344 36.542969-24.648438-14.34375-4.070312 2.488281c-14.113282 8.609375-29.378906 14.9375-45.378906 18.816406l-4.628907 1.121094-7.28125 27.535156h-51.671875l-7.28125-27.550781-4.632812-1.121093c-16-3.871094-31.261719-10.207032-45.375-18.816407l-4.070313-2.488281-24.648437 14.34375-36.527344-36.542969 14.34375-24.648437-2.480469-4.054688c-8.609375-14.105468-14.9375-29.367187-18.816406-45.367187l-1.121094-4.632813-27.550781-7.28125v-51.679687l27.550781-7.28125 1.121094-4.628907c3.871094-16 10.199219-31.265624 18.816406-45.371093l2.488281-4.070313-14.34375-24.648437 36.527344-36.542969 24.648438 14.34375 4.070312-2.488281c14.105469-8.609375 29.367188-14.9375 45.378906-18.816407l4.628907-1.121093 7.28125-27.535157h51.671875l7.28125 27.550782 4.632812 1.121094c15.757813 3.816406 30.78125 10.03125 44.703125 18.441406 5.832031 12.503906 13.941407 24.023437 24.34375 33.917968 2.230469 2.128907 4.175781 4.488282 5.886719 6.976563h-.6875c-4.585938 0-8.832031 1.359375-12.480469 3.601563-25.726562-27.714844-61.472656-43.609376-99.519531-43.609376-74.992188 0-136 61.007813-136 136 0 74.992188 61.007812 136 136 136s136-61.007812 136-136v-16.886718c10.175781 10.40625 24.335938 16.886718 40 16.886718h8v25.839844zm-44.449219-81.121094h8v48c0 66.167969-53.832031 120-120 120s-120-53.832031-120-120c0-66.167968 53.832031-120 120-120 34.367188 0 66.617188 14.679688 89.40625 40.207032-.847656 2.457031-1.40625 5.050781-1.40625 7.792968 0 13.230469 10.769531 24 24 24zm80 32h-16c-19.3125 0-35.472656-13.769531-39.191406-32h94.382812c-3.71875 18.230469-19.878906 32-39.191406 32zm64-48h-144c-4.414062 0-8-3.589843-8-8 0-4.40625 3.585938-8 8-8h144c4.414062 0 8 3.59375 8 8 0 4.410157-3.585938 8-8 8zm0 0" fill="#f0eded" class="color000 svgShape"></path><path d="M200 208.476562c-48.519531 0-88 39.480469-88 88 0 48.519532 39.480469 88 88 88s88-39.480468 88-88c0-48.519531-39.480469-88-88-88zm0 160c-39.703125 0-72-32.304687-72-72 0-39.695312 32.296875-72 72-72s72 32.304688 72 72c0 39.695313-32.296875 72-72 72zm0 0M192 128.476562h16v16h-16zm0 0M75.5625 183.34375l11.316406-11.3125 11.3125 11.320312-11.320312 11.308594zm0 0M32 288.476562h16v16h-16zm0 0M75.574219 409.628906l11.308593-11.320312 11.320313 11.3125-11.3125 11.316406zm0 0M192 448.476562h16v16h-16zm0 0M301.851562 409.617188l11.320313-11.308594 11.308594 11.316406-11.316407 11.3125zm0 0" fill="#f0eded" class="color000 svgShape"></path><path d="M144 296.476562h16c0-22.054687 17.945312-40 40-40v-16c-30.871094 0-56 25.121094-56 56zm0 0M147.183594 315.140625c2.433594 6.894531 6.160156 13.175781 11.082031 18.671875l11.917969-10.671875c-3.511719-3.929687-6.175782-8.40625-7.902344-13.328125zm0 0M348.457031 59.253906l-8.90625-13.296875c-5.582031 3.742188-10.695312 8.175781-15.167969 13.183594l11.921876 10.671875c3.574218-4.007812 7.671874-7.558594 12.152343-10.558594zm0 0M398.222656 50.0625l3.546875-15.601562c-14.65625-3.328126-30.273437-2.433594-44.441406 2.566406l5.328125 15.089844c11.320312-4 23.839844-4.71875 35.566406-2.054688zm0 0" fill="#f0eded" class="color000 svgShape"></path></svg></g></svg>