<?xml version="1.0" encoding="UTF-8"?>
<svg xmlns="http://www.w3.org/2000/svg" xmlns:xlink="http://www.w3.org/1999/xlink" width="50pt" height="50pt" viewBox="0 0 50 50" version="1.1">
<g id="surface1">
<path style=" stroke:none;fill-rule:nonzero;fill:rgb(72.156863%,69.411765%,69.411765%);fill-opacity:1;" d="M 49.023438 20.386719 L 42.773438 20.386719 C 42.234375 20.386719 41.796875 20.824219 41.796875 21.363281 L 41.796875 26.292969 C 41.796875 26.832031 42.234375 27.269531 42.773438 27.269531 C 43.3125 27.269531 43.75 26.832031 43.75 26.292969 L 43.75 22.339844 L 48.046875 22.339844 L 48.046875 48.046875 L 43.75 48.046875 L 43.75 33.617188 C 43.75 33.078125 43.3125 32.640625 42.773438 32.640625 C 42.234375 32.640625 41.796875 33.078125 41.796875 33.617188 L 41.796875 48.046875 L 39.84375 48.046875 L 39.84375 27.832031 C 39.84375 27.292969 39.40625 26.855469 38.867188 26.855469 L 32.617188 26.855469 C 32.078125 26.855469 31.640625 27.292969 31.640625 27.832031 L 31.640625 48.046875 L 29.6875 48.046875 L 29.6875 34.667969 C 29.6875 34.128906 29.25 33.691406 28.710938 33.691406 L 22.460938 33.691406 C 21.921875 33.691406 21.484375 34.128906 21.484375 34.667969 L 21.484375 48.046875 L 19.53125 48.046875 L 19.53125 40.269531 C 19.53125 39.730469 19.09375 39.292969 18.554688 39.292969 L 12.304688 39.292969 C 11.765625 39.292969 11.328125 39.730469 11.328125 40.269531 L 11.328125 48.046875 L 2.929688 48.046875 C 2.390625 48.046875 1.953125 47.609375 1.953125 47.070312 L 1.953125 2.929688 C 1.953125 2.390625 2.390625 1.953125 2.929688 1.953125 L 28.121094 1.953125 L 28.121094 8.398438 C 28.121094 10.015625 29.4375 11.328125 31.050781 11.328125 L 37.496094 11.328125 L 37.496094 23.339844 C 37.496094 23.878906 37.933594 24.316406 38.472656 24.316406 C 39.011719 24.316406 39.449219 23.878906 39.449219 23.339844 L 39.449219 10.351562 C 39.449219 10.09375 39.347656 9.84375 39.164062 9.660156 L 29.789062 0.285156 C 29.605469 0.101562 29.359375 0 29.097656 0 L 2.929688 0 C 1.3125 0 0 1.3125 0 2.929688 L 0 47.070312 C 0 48.6875 1.3125 50 2.929688 50 L 49.023438 50 C 49.5625 50 50 49.5625 50 49.023438 L 50 21.363281 C 50 20.824219 49.5625 20.386719 49.023438 20.386719 Z M 30.074219 3.335938 L 36.117188 9.375 L 31.050781 9.375 C 30.511719 9.375 30.074219 8.9375 30.074219 8.398438 Z M 17.578125 48.046875 L 13.28125 48.046875 L 13.28125 41.246094 L 17.578125 41.246094 Z M 27.734375 48.046875 L 23.4375 48.046875 L 23.4375 35.644531 L 27.734375 35.644531 Z M 37.890625 48.046875 L 33.59375 48.046875 L 33.59375 28.808594 L 37.890625 28.808594 Z M 37.890625 48.046875 "/>
<path style=" stroke:none;fill-rule:nonzero;fill:rgb(72.156863%,69.411765%,69.411765%);fill-opacity:1;" d="M 43.464844 29.085938 C 43.28125 28.902344 43.03125 28.796875 42.773438 28.796875 C 42.515625 28.796875 42.265625 28.902344 42.082031 29.085938 C 41.902344 29.265625 41.796875 29.515625 41.796875 29.773438 C 41.796875 30.03125 41.902344 30.28125 42.082031 30.464844 C 42.265625 30.644531 42.515625 30.75 42.773438 30.75 C 43.03125 30.75 43.28125 30.648438 43.464844 30.464844 C 43.644531 30.28125 43.75 30.03125 43.75 29.773438 C 43.75 29.515625 43.644531 29.265625 43.464844 29.085938 Z M 14.214844 5.34375 C 13.675781 5.34375 13.238281 5.78125 13.238281 6.320312 L 13.238281 8.078125 C 8.746094 8.566406 5.234375 12.382812 5.234375 17.007812 C 5.234375 21.960938 9.265625 25.988281 14.214844 25.988281 C 18.839844 25.988281 22.65625 22.480469 23.144531 17.984375 L 24.902344 17.984375 C 25.441406 17.984375 25.878906 17.546875 25.878906 17.007812 C 25.878906 10.578125 20.648438 5.34375 14.214844 5.34375 Z M 14.214844 24.035156 C 10.339844 24.035156 7.1875 20.882812 7.1875 17.007812 C 7.1875 13.460938 9.824219 10.523438 13.238281 10.046875 L 13.238281 17.007812 C 13.238281 17.546875 13.675781 17.984375 14.214844 17.984375 L 21.175781 17.984375 C 20.699219 21.398438 17.761719 24.035156 14.214844 24.035156 Z M 15.191406 16.03125 L 15.191406 7.347656 C 19.769531 7.804688 23.417969 11.457031 23.878906 16.03125 Z M 24.902344 28.734375 L 6.25 28.734375 C 5.710938 28.734375 5.273438 29.171875 5.273438 29.710938 C 5.273438 30.25 5.710938 30.6875 6.25 30.6875 L 24.902344 30.6875 C 25.441406 30.6875 25.878906 30.25 25.878906 29.710938 C 25.878906 29.171875 25.441406 28.734375 24.902344 28.734375 Z M 12.5 33.445312 L 6.25 33.445312 C 5.710938 33.445312 5.273438 33.882812 5.273438 34.421875 C 5.273438 34.964844 5.710938 35.398438 6.25 35.398438 L 12.5 35.398438 C 13.039062 35.398438 13.476562 34.964844 13.476562 34.421875 C 13.476562 33.882812 13.039062 33.445312 12.5 33.445312 Z M 18.082031 33.734375 C 17.898438 33.550781 17.648438 33.445312 17.390625 33.445312 C 17.132812 33.445312 16.882812 33.550781 16.699219 33.734375 C 16.515625 33.914062 16.414062 34.167969 16.414062 34.421875 C 16.414062 34.679688 16.515625 34.933594 16.699219 35.113281 C 16.882812 35.296875 17.132812 35.398438 17.390625 35.398438 C 17.648438 35.398438 17.898438 35.296875 18.082031 35.113281 C 18.261719 34.933594 18.367188 34.679688 18.367188 34.421875 C 18.367188 34.167969 18.261719 33.914062 18.082031 33.734375 Z M 18.082031 33.734375 "/>
</g>
</svg>
