<svg id="SvgjsSvg1039" width="288" height="288" xmlns="http://www.w3.org/2000/svg" version="1.1" xmlns:xlink="http://www.w3.org/1999/xlink" xmlns:svgjs="http://svgjs.com/svgjs"><defs id="SvgjsDefs1040"></defs><g id="SvgjsG1041"><svg xmlns="http://www.w3.org/2000/svg" enable-background="new 0 0 512 512" viewBox="0 0 512 512" width="288" height="288"><path d="M502,208.749h-64c-5.523,0-10,4.478-10,10v50.5c0,5.522,4.477,10,10,10s10-4.478,10-10v-40.5h44V492h-22h-22V344.249
			c0-5.522-4.477-10-10-10s-10,4.478-10,10V492h-20V285c0-5.522-4.477-10-10-10h-64c-5.523,0-10,4.478-10,10v207h-20V355
			c0-5.522-4.477-10-10-10h-64c-5.523,0-10,4.478-10,10v137h-20v-79.625c0-5.522-4.477-10-10-10h-64c-5.523,0-10,4.478-10,10V492H30
			c-5.514,0-10-4.486-10-10V30c0-5.514,4.486-10,10-10h257.975v66.003c0,16.542,13.458,30,30,30h66V239c0,5.522,4.477,10,10,10
			s10-4.478,10-10V106.003c0-2.652-1.054-5.195-2.929-7.071l-96-96.003C303.17,1.054,300.627,0,297.975,0H30C13.458,0,0,13.458,0,30
			v452c0,16.542,13.458,30,30,30h472c5.523,0,10-4.478,10-10V218.749C512,213.227,507.523,208.749,502,208.749z M307.975,34.143
			l61.859,61.86h-51.859c-5.515,0-10-4.486-10-10V34.143z M180,492h-44v-69.625h44V492z M284,492h-44V365h44V492z M388,492h-44V295
			h44V492z" fill="#b8b1b1" class="color000 svgShape"></path><path d="M445.07 297.82c-1.86-1.869-4.44-2.93-7.07-2.93s-5.21 1.061-7.07 2.93c-1.86 1.86-2.93 4.44-2.93 7.07s1.07 5.21 2.93 7.07c1.86 1.859 4.44 2.93 7.07 2.93s5.21-1.07 7.07-2.93 2.93-4.44 2.93-7.07S446.93 299.68 445.07 297.82zM145.577 54.729c-5.523 0-10 4.478-10 10v17.989c-46.031 4.997-81.975 44.097-81.975 91.435 0 50.715 41.26 91.975 91.975 91.975 47.338 0 86.438-35.943 91.435-81.975H255c5.523 0 10-4.478 10-10C265 108.302 211.427 54.729 145.577 54.729zM145.577 246.127c-39.687 0-71.975-32.288-71.975-71.975 0-36.293 27.005-66.399 61.975-71.282v71.282c0 5.522 4.477 10 10 10h71.282C211.976 219.122 181.87 246.127 145.577 246.127zM155.577 164.153v-.001V75.228c46.852 4.702 84.222 42.073 88.924 88.925H155.577zM255 294.25H64c-5.523 0-10 4.478-10 10 0 5.522 4.477 10 10 10h191c5.523 0 10-4.478 10-10C265 298.728 260.523 294.25 255 294.25zM128 342.5H64c-5.523 0-10 4.478-10 10 0 5.522 4.477 10 10 10h64c5.523 0 10-4.478 10-10C138 346.978 133.523 342.5 128 342.5zM185.15 345.43c-1.86-1.86-4.44-2.93-7.07-2.93-2.64 0-5.21 1.069-7.07 2.93-1.87 1.86-2.93 4.44-2.93 7.07s1.06 5.21 2.93 7.069c1.86 1.86 4.43 2.931 7.07 2.931 2.63 0 5.21-1.07 7.07-2.931 1.86-1.859 2.93-4.439 2.93-7.069S187.01 347.29 185.15 345.43z" fill="#b8b1b1" class="color000 svgShape"></path></svg></g></svg>